# xmcd
#
# Track frame offsets:
#       150
#       22045
#       40834
#       63986
#       81730
#       102795
#       124206
#       146796
#       168612
#       186420
#       205007
#       225299
#       247224
#       270703
#       298276
#       320363
#
# Disc length: 4609 seconds
#
# Revision: 0
# Processed by: cddbd v1.5.1PL2 Copyright (c) Steve Scherf et al.
# Submitted via: WaveLab 4.01
#
DISCID=f811ff10
DTITLE=KJ Hines - Capitol City
DYEAR=1900
DGENRE=
TTITLE0=I Own This
TTITLE1=Daily Grind
TTITLE2=Move With It
TTITLE3=Everyday Hustle
TTITLE4=Get Wit U
TTITLE5=From The South
TTITLE6=Already
TTITLE7=Dirty Place
TTITLE8=Just Friends
TTITLE9=Southside
TTITLE10=They Don't Know About Me
TTITLE11=I Found Love
TTITLE12=Capital City
TTITLE13=Capital City (screwed)
TTITLE14=Daily Grind (screwed)
TTITLE15=I Own This (screwed)
EXTD=
EXTT0=
EXTT1=
EXTT2=
EXTT3=
EXTT4=
EXTT5=
EXTT6=
EXTT7=
EXTT8=
EXTT9=
EXTT10=
EXTT11=
EXTT12=
EXTT13=
EXTT14=
EXTT15=
PLAYORDER=
